HIERARCHY
ROOT Hips
{
	OFFSET 0.000000 0.000000 0.000000
	CHANNELS 6 Xposition Yposition Zposition Zrotation Yrotation Xrotation 
	JOINT LHipJoint
	{
		OFFSET 0.000000 0.000000 0.000000
		CHANNELS 3 Zrotation Yrotation Xrotation
		JOINT LeftUpLeg
		{
			OFFSET 1.363060 -1.794630 0.839290
			CHANNELS 3 Zrotation Yrotation Xrotation
			JOINT LeftLeg
			{
				OFFSET 2.448110 -6.726130 0.000000
				CHANNELS 3 Zrotation Yrotation Xrotation
				JOINT LeftFoot
				{
					OFFSET 2.562200 -7.039590 0.000000
					CHANNELS 3 Zrotation Yrotation Xrotation
					JOINT LeftToeBase
					{
						OFFSET 0.157640 -0.433110 2.322550
						CHANNELS 3 Zrotation Yrotation Xrotation
						End Site
						{
							OFFSET 0.000000 0.000000 0.000000
						}
					}
				}
			}
		}
	}
	JOINT RHipJoint
	{
		OFFSET 0.000000 0.000000 0.000000
		CHANNELS 3 Zrotation Yrotation Xrotation
		JOINT RightUpLeg
		{
			OFFSET -1.305520 -1.794630 0.839290
			CHANNELS 3 Zrotation Yrotation Xrotation
			JOINT RightLeg
			{
				OFFSET -2.542530 -6.985550 0.000000
				CHANNELS 3 Zrotation Yrotation Xrotation
				JOINT RightFoot
				{
					OFFSET -2.568260 -7.056230 0.000000
					CHANNELS 3 Zrotation Yrotation Xrotation
					JOINT RightToeBase
					{
						OFFSET -0.164730 -0.452590 2.363150
						CHANNELS 3 Zrotation Yrotation Xrotation
						End Site
						{
							OFFSET 0.000000 0.000000 0.000000
						}
					}
				}
			}
		}
	}
	JOINT LowerBack
	{
		OFFSET 0.000000 0.000000 0.000000
		CHANNELS 3 Zrotation Yrotation Xrotation
		JOINT Spine
		{
			OFFSET 0.028270 2.035590 -0.193380
			CHANNELS 3 Zrotation Yrotation Xrotation
			JOINT Spine1
			{
				OFFSET 0.056720 2.048850 -0.042750
				CHANNELS 3 Zrotation Yrotation Xrotation
				JOINT Neck
				{
					OFFSET 0.000000 0.000000 0.000000
					CHANNELS 3 Zrotation Yrotation Xrotation
					JOINT Neck1
					{
						OFFSET -0.054170 1.746240 0.172020
						CHANNELS 3 Zrotation Yrotation Xrotation
						JOINT Head
						{
							OFFSET 0.104070 1.761360 -0.123970
							CHANNELS 3 Zrotation Yrotation Xrotation
							End Site
							{
								OFFSET 0.000000 0.000000 0.000000
							}
						}
					}
				}
				JOINT LeftShoulder
				{
					OFFSET 0.000000 0.000000 0.000000
					CHANNELS 3 Zrotation Yrotation Xrotation
					JOINT LeftArm
					{
						OFFSET 3.362410 1.200890 -0.311210
						CHANNELS 3 Zrotation Yrotation Xrotation
						JOINT LeftForeArm
						{
							OFFSET 4.983000 -0.000000 -0.000000
							CHANNELS 3 Zrotation Yrotation Xrotation
							JOINT LeftHand
							{
								OFFSET 3.483560 -0.000000 -0.000000
								CHANNELS 3 Zrotation Yrotation Xrotation
								JOINT LeftFingerBase
								{
									OFFSET 0.000000 0.000000 0.000000
									CHANNELS 3 Zrotation Yrotation Xrotation
									JOINT LeftHandIndex1
									{
										OFFSET 0.715260 -0.000000 -0.000000
										CHANNELS 3 Zrotation Yrotation Xrotation
										End Site
										{
											OFFSET 0.000000 0.000000 0.000000
										}
									}
								}
								JOINT LThumb
								{
									OFFSET 0.000000 0.000000 0.000000
									CHANNELS 3 Zrotation Yrotation Xrotation
									End Site
									{
										OFFSET 0.000000 0.000000 0.000000
									}
								}
							}
						}
					}
				}
				JOINT RightShoulder
				{
					OFFSET 0.000000 0.000000 0.000000
					CHANNELS 3 Zrotation Yrotation Xrotation
					JOINT RightArm
					{
						OFFSET -3.136600 1.374050 -0.404650
						CHANNELS 3 Zrotation Yrotation Xrotation
						JOINT RightForeArm
						{
							OFFSET -5.241900 -0.000000 -0.000000
							CHANNELS 3 Zrotation Yrotation Xrotation
							JOINT RightHand
							{
								OFFSET -3.444170 -0.000000 -0.000000
								CHANNELS 3 Zrotation Yrotation Xrotation
								JOINT RightFingerBase
								{
									OFFSET 0.000000 0.000000 0.000000
									CHANNELS 3 Zrotation Yrotation Xrotation
									JOINT RightHandIndex1
									{
										OFFSET -0.622530 -0.000000 -0.000000
										CHANNELS 3 Zrotation Yrotation Xrotation
										End Site
										{
											OFFSET 0.000000 0.000000 0.000000
										}
									}
								}
								JOINT RThumb
								{
									OFFSET 0.000000 0.000000 0.000000
									CHANNELS 3 Zrotation Yrotation Xrotation
									End Site
									{
										OFFSET 0.000000 0.000000 0.000000
									}
								}
							}
						}
					}
				}
			}
		}
	}
}
MOTION
Frames: 6
Frame Time: 0.008333
5.452100 15.725519 1.855406 -18.213003 -86.938932 51.725373 -13.809507 2.416058 -3.453002 0.333192 10.650435 -16.460591 -0.023061 3.069397 53.425165 2.394578 15.964595 2.290993 2.375999 0.000000 -38.360400 6.408112 0.225771 2.400334 13.188361 10.552539 -70.444538 1.759648 -3.654394 47.369366 -1.955206 -4.590060 -13.051844 0.024900 -0.000000 -23.170400 10.176138 -2.445295 3.962217 1.833851 -2.718248 -2.450481 -4.499345 -2.843698 -1.024008 8.341892 -1.071431 1.269040 -2.490045 -0.266638 2.153419 0.000000 0.000000 0.000000 -0.068238 -7.745513 -2.014442 -83.938639 -44.498227 38.459778 -179.503901 -86.911581 -179.996159 0.440968 -5.570360 -0.025845 -0.060988 0.754172 -0.000000 0.000000 0.000000 0.000000 0.000000 0.000000 0.000000 8.330694 -0.480698 5.293141 50.948423 -9.671724 15.714198 4.226038 27.992493 0.002260 8.391070 -1.661811 -0.118107 0.092936 -0.030004 0.000000 0.000000 0.000000 0.000000 0.000000 0.000000 0.000000 
5.234355 15.599825 1.847445 -25.899963 -87.082250 58.800895 -14.082211 2.267137 -3.592912 0.890701 10.587465 -16.595788 0.144401 3.298451 56.150085 2.456605 16.348447 0.974786 2.109000 0.000000 -37.369500 6.203991 0.242217 1.983158 13.856935 10.930400 -70.479012 1.431404 -3.967580 51.776643 -2.088986 -4.711090 -15.360529 0.389400 -0.000000 -20.895200 10.452391 -2.477841 4.578961 1.840775 -2.721654 -2.323092 -4.668012 -2.850138 -1.090629 8.696680 -0.386207 1.406285 -2.555609 -0.270408 2.180925 0.000000 0.000000 0.000000 -0.890756 -8.233557 -1.625512 -82.061204 -44.941753 37.301769 -179.532061 -87.280162 -179.995183 0.350390 -5.668606 -0.021093 -0.058825 0.755121 -0.000000 0.000000 0.000000 0.000000 0.000000 0.000000 0.000000 9.059947 0.120801 5.309621 50.020007 -9.181323 15.494593 4.264585 27.499328 0.003144 8.202905 -1.321777 -0.090988 0.095268 -0.033129 0.000000 0.000000 0.000000 0.000000 0.000000 0.000000 0.000000 
5.022415 15.486213 1.838406 -32.920094 -87.105081 65.212432 -14.324002 2.083383 -3.740608 1.385929 10.323295 -16.803628 0.330285 3.528414 58.907427 2.515447 16.703821 -0.439613 1.798700 0.000000 -36.311100 6.030307 0.227942 1.556928 14.566056 11.205285 -70.180546 1.173597 -4.212206 55.567484 -2.245442 -4.904459 -17.776112 0.778099 0.000000 -19.304700 10.714099 -2.547746 5.238475 1.834749 -2.755032 -2.189758 -4.871647 -2.887779 -1.167177 9.162710 0.443697 1.602643 -2.641484 -0.275612 2.223238 0.000000 0.000000 0.000000 -1.736380 -8.784641 -1.205312 -80.058270 -45.238210 35.962743 -179.579059 -87.847130 -179.994636 0.302294 -5.784133 -0.018729 -0.057558 0.755191 -0.000000 0.000000 0.000000 0.000000 0.000000 0.000000 0.000000 10.010975 0.781548 5.300419 49.047257 -8.525595 15.035482 4.308955 26.716158 0.004172 8.032669 -0.921809 -0.061071 0.097336 -0.036414 0.000000 0.000000 0.000000 0.000000 0.000000 0.000000 0.000000 
4.815318 15.385594 1.827428 -38.792632 -87.037905 70.496581 -14.518056 1.885354 -3.887926 1.784688 9.859071 -17.116537 0.528406 3.761791 61.679054 2.573869 17.051472 -1.957555 1.445200 -0.000000 -35.126300 5.902086 0.198328 1.123541 15.290978 11.368872 -69.587312 0.981490 -4.404945 58.758829 -2.419920 -5.157328 -20.226967 1.190801 -0.000000 -18.346400 10.945305 -2.648609 5.923122 1.812886 -2.812817 -2.051682 -5.107469 -2.950913 -1.243139 9.729192 1.346371 1.839703 -2.745805 -0.281898 2.275563 0.000000 0.000000 0.000000 -2.566819 -9.363595 -0.777778 -77.999470 -45.356633 34.485440 -179.649229 -88.654212 -179.994817 0.323230 -5.917217 -0.020457 -0.057616 0.753708 -0.000000 0.000000 0.000000 0.000000 0.000000 0.000000 0.000000 11.159996 1.428800 5.264162 48.051867 -7.602527 14.366971 4.357449 25.575897 0.005332 7.839123 -0.454541 -0.027758 0.099404 -0.039890 0.000000 0.000000 0.000000 0.000000 0.000000 0.000000 0.000000 
4.612082 15.298330 1.813668 -43.305259 -86.923495 74.451704 -14.658992 1.691123 -4.026372 2.054398 9.207068 -17.559680 0.733879 3.999003 64.443908 2.635681 17.417660 -3.577662 1.048600 -0.000000 -33.788900 5.825015 0.169911 0.686945 15.994841 11.417995 -68.745445 0.845373 -4.555351 61.387007 -2.606667 -5.458111 -22.636433 1.623200 0.000000 -17.937400 11.118978 -2.771288 6.611855 1.771552 -2.887188 -1.915826 -5.368111 -3.032166 -1.325347 10.384289 2.336533 2.119333 -2.864392 -0.289042 2.339176 0.000000 0.000000 0.000000 -3.347884 -9.953345 -0.358416 -75.954960 -45.254895 32.906346 -179.745524 -89.746991 -179.996015 0.439058 -6.064844 -0.027977 -0.059322 0.749989 -0.000000 0.000000 0.000000 0.000000 0.000000 0.000000 0.000000 12.477311 2.090307 5.200165 47.091730 -6.473130 13.328661 4.402113 24.082618 0.006574 7.609757 0.044452 0.006155 0.101262 -0.043739 0.000000 0.000000 0.000000 0.000000 0.000000 0.000000 0.000000 
4.411555 15.224198 1.796449 -46.461976 -86.803749 77.089293 -14.748526 1.512116 -4.148456 2.170863 8.390415 -18.151266 0.943190 4.237176 67.179940 2.705349 17.829535 -5.294167 0.606900 -0.000000 -32.261800 5.798841 0.154640 0.254032 16.637543 11.356058 -67.708539 0.753568 -4.669334 63.503847 -2.799237 -5.796784 -24.932602 2.067900 -0.000000 -17.958700 11.207721 -2.907099 7.281284 1.707946 -2.971703 -1.789820 -5.644262 -3.125553 -1.420723 11.110615 3.432388 2.443649 -2.991498 -0.296761 2.415470 0.000000 0.000000 0.000000 -4.052045 -10.535810 0.039946 -74.000694 -44.905587 31.272908 0.130630 -88.823402 0.001539 0.673330 -6.220252 -0.043092 -0.062905 0.743200 -0.000000 0.000000 0.000000 0.000000 0.000000 0.000000 0.000000 13.921227 2.803411 5.108379 46.230046 -5.220306 11.741223 4.430442 22.264523 0.007827 7.316840 0.537571 0.037262 0.102581 -0.048264 0.000000 0.000000 0.000000 0.000000 0.000000 0.000000 0.000000 
